<?xml version="1.0" standalone="no"?>
<!DOCTYPE svg PUBLIC "-//W3C//DTD SVG 20010904//EN"
 "http://www.w3.org/TR/2001/REC-SVG-20010904/DTD/svg10.dtd">
<svg version="1.0" xmlns="http://www.w3.org/2000/svg"
 width="900.000000pt" height="600.000000pt" viewBox="0 0 900.000000 600.000000"
 preserveAspectRatio="xMidYMid meet">
<metadata>
Created by potrace 1.16, written by Peter Selinger 2001-2019
</metadata>
<g transform="translate(0.000000,600.000000) scale(0.100000,-0.100000)"
fill="#000000" stroke="none">
<path d="M8223 4118 c2 -35 10 -83 16 -106 6 -24 14 -69 17 -100 3 -32 12 -84
21 -117 17 -63 25 -355 11 -355 -14 0 -8 -47 7 -60 8 -7 13 -16 10 -20 -3 -4
3 -22 11 -40 11 -22 19 -28 24 -20 13 21 29 -50 33 -147 3 -70 8 -98 21 -112
9 -10 22 -36 28 -57 5 -22 13 -41 17 -44 11 -8 46 -123 44 -142 -2 -10 2 -18
7 -18 12 0 35 -52 44 -102 7 -37 6 -38 -24 -38 -16 0 -30 -4 -30 -9 0 -5 -10
-11 -22 -13 -13 -2 -23 -10 -23 -18 0 -8 -8 -16 -17 -18 -11 -2 -18 3 -18 12
0 8 -8 17 -18 20 -10 4 -26 22 -35 42 -10 19 -22 32 -27 29 -17 -10 -80 6 -80
21 0 8 -6 14 -14 14 -8 0 -17 15 -21 37 -4 21 -15 49 -26 64 -10 15 -19 34
-19 43 0 9 -8 16 -18 16 -11 0 -27 9 -37 20 -10 11 -27 20 -37 20 -11 0 -33
14 -50 30 -16 17 -33 30 -38 30 -8 0 -27 23 -75 89 -25 35 -69 71 -85 71 -10
0 -23 7 -31 16 -17 21 -113 84 -127 84 -7 0 -17 9 -24 21 -7 11 -29 29 -48 39
-19 10 -45 28 -58 40 -31 30 -270 143 -301 143 -125 -1 -183 -16 -165 -44 3
-5 -2 -12 -10 -15 -20 -8 -21 -40 -1 -48 8 -3 15 -12 15 -21 0 -9 7 -26 15
-38 11 -18 12 -31 3 -65 -11 -43 -34 -65 -47 -45 -11 17 -48 33 -91 38 -56 7
-65 -18 -34 -95 31 -77 48 -110 57 -110 4 0 7 -6 7 -14 0 -7 9 -25 20 -38 10
-14 17 -28 14 -31 -3 -3 6 -22 21 -41 15 -20 24 -36 20 -36 -4 0 5 -16 20 -36
20 -27 24 -38 15 -44 -9 -6 -8 -16 6 -45 10 -21 20 -33 22 -27 5 17 22 15 22
-2 0 -17 54 -60 87 -71 14 -4 26 -17 29 -33 4 -15 15 -39 25 -54 11 -14 19
-36 19 -47 0 -13 9 -25 23 -31 17 -7 18 -9 5 -9 -21 -1 -24 -31 -3 -31 7 0 18
-7 23 -16 5 -9 13 -14 18 -12 5 1 13 -18 19 -44 l10 -47 24 37 c18 27 26 33
30 21 3 -8 18 -31 34 -50 15 -20 27 -41 27 -47 0 -7 9 -12 21 -12 13 0 25 -11
34 -33 7 -18 24 -44 37 -57 13 -14 30 -44 36 -67 8 -25 19 -43 27 -43 8 0 15
-6 15 -14 0 -8 9 -18 20 -21 11 -3 20 -11 20 -16 0 -5 9 -9 20 -9 11 0 20 -4
20 -10 0 -5 19 -10 42 -10 33 0 39 -3 30 -12 -17 -17 -15 -28 6 -26 9 1 34 -2
54 -6 23 -5 50 -4 69 3 25 8 34 8 46 -4 8 -8 19 -15 25 -15 5 0 8 -7 4 -15 -6
-17 18 -42 70 -71 10 -6 21 -24 24 -39 3 -16 11 -30 19 -33 11 -4 13 2 8 27
-5 23 -3 31 8 31 8 0 15 -9 15 -20 0 -13 12 -28 30 -38 29 -16 41 -42 20 -42
-5 0 -10 -13 -10 -30 0 -23 4 -30 20 -30 11 0 29 -9 41 -21 12 -12 27 -18 38
-14 12 3 30 -4 49 -20 16 -14 34 -25 38 -25 5 0 17 -21 28 -46 10 -25 26 -48
35 -52 9 -3 28 -17 42 -31 28 -27 46 -42 67 -55 14 -8 82 13 82 26 0 5 11 20
24 33 32 32 64 23 83 -23 12 -28 168 -235 219 -292 12 -12 14 141 14 960 0
644 -4 970 -10 960 -12 -18 -12 -18 -62 70 -17 30 -46 73 -64 95 -17 22 -49
72 -69 110 -21 39 -111 180 -200 315 -88 135 -176 270 -195 300 -19 30 -43 67
-54 82 -118 155 -130 161 -123 66z"/>
<path d="M5950 3666 c0 -50 -2 -56 -27 -68 -24 -11 -28 -19 -26 -48 8 -129 6
-150 -15 -173 -26 -28 -29 -78 -7 -130 18 -42 20 -97 4 -97 -6 0 -52 22 -102
49 -101 54 -177 74 -238 65 -21 -4 -39 -9 -39 -11 0 -15 54 -45 157 -88 46
-19 168 -129 159 -144 -7 -11 27 -21 72 -21 33 0 34 0 28 38 -8 50 4 67 44 58
30 -6 39 0 135 92 78 74 101 102 97 117 -2 11 -7 22 -11 25 -12 10 -51 69 -51
78 0 4 -5 13 -11 19 -6 6 -30 56 -54 110 -46 108 -89 183 -105 183 -6 0 -10
-25 -10 -54z"/>
<path d="M6161 3203 c-65 -49 -117 -98 -193 -180 l-21 -23 101 0 102 0 0 -415
c0 -410 0 -418 30 -608 16 -105 34 -214 40 -242 6 -27 14 -70 18 -95 4 -25 9
135 12 355 6 511 2 1265 -8 1265 -4 0 -40 -26 -81 -57z"/>
<path d="M6631 2800 c-1 -102 -4 -773 -7 -1492 l-6 -1308 901 0 901 0 0 39 c0
22 -5 41 -12 43 -8 3 -7 11 4 29 21 32 34 199 17 210 -8 5 3 18 35 41 27 18
59 43 72 55 13 12 32 24 42 27 11 4 26 24 35 46 18 47 38 51 82 15 23 -19 26
-25 13 -25 -21 0 -23 -19 -6 -55 13 -28 42 -33 64 -10 24 24 34 18 55 -30 15
-34 25 -45 37 -41 21 7 51 -11 37 -21 -15 -12 -35 -51 -35 -68 0 -8 -4 -15
-10 -15 -5 0 -10 19 -11 43 -1 41 -1 41 -10 12 -5 -16 -7 -40 -4 -53 4 -15 1
-22 -10 -22 -8 0 -15 -6 -15 -13 0 -7 -18 -21 -40 -31 -27 -12 -40 -24 -40
-37 0 -10 -7 -19 -15 -19 -9 0 -19 -8 -22 -17 -4 -10 -9 -20 -12 -23 -12 -10
-31 -50 -31 -65 0 -13 26 -15 180 -15 l180 0 0 546 c0 423 -3 548 -12 558 -7
8 -62 77 -123 154 l-110 141 -45 -3 c-53 -4 -82 -14 -74 -27 3 -5 0 -9 -6 -9
-6 0 8 -18 31 -40 23 -22 46 -40 51 -40 4 0 8 -16 8 -35 0 -21 8 -43 19 -54
10 -10 22 -36 26 -57 4 -22 16 -47 27 -58 10 -10 17 -24 14 -31 -3 -8 2 -19
10 -25 8 -7 14 -23 14 -36 0 -13 5 -24 10 -24 6 0 10 -6 10 -14 0 -7 8 -20 19
-27 16 -12 18 -24 14 -81 -6 -71 -14 -81 -70 -83 -24 -1 -40 34 -20 47 8 5 6
9 -6 14 -9 3 -17 15 -17 26 0 18 -5 20 -44 16 -54 -6 -97 11 -115 45 -13 25
-17 26 -73 20 -55 -5 -58 -5 -58 16 0 11 5 21 11 21 25 0 2 33 -26 36 -16 2
-38 13 -47 25 l-18 21 0 -27 c0 -31 -20 -30 -35 3 -5 12 -18 22 -29 22 -16 0
-18 -5 -13 -42 3 -24 3 -37 0 -29 -3 8 -13 22 -22 33 -9 10 -16 29 -16 41 0
15 -7 23 -22 25 -17 3 -23 10 -23 28 0 13 -4 24 -9 24 -4 0 -14 20 -21 45 -7
25 -17 48 -21 51 -5 3 -9 16 -9 29 0 15 -7 26 -20 30 -11 3 -19 9 -18 13 4 22
-16 41 -38 36 -18 -5 -24 -2 -24 10 0 9 -12 18 -27 22 -31 7 -53 22 -53 35 0
5 8 6 18 3 9 -4 4 3 -13 15 -16 11 -36 21 -44 21 -8 0 -11 3 -8 7 4 3 -5 12
-20 20 -18 9 -30 10 -37 3 -5 -5 -21 -10 -35 -10 -21 0 -23 2 -11 10 13 9 13
11 0 20 -13 9 -13 10 1 10 8 0 20 -5 27 -12 7 -7 12 -8 12 -2 0 5 -17 20 -36
32 -27 18 -39 21 -44 12 -5 -8 -16 -9 -31 -4 -13 4 -33 9 -44 10 -45 5 -496
-136 -561 -177 -30 -18 -39 -20 -61 -10 -23 11 -25 15 -19 56 8 49 -9 110
-190 703 -19 64 -51 169 -69 232 -19 63 -45 151 -59 195 -14 44 -30 96 -36
115 -5 19 -32 105 -59 190 l-49 155 -1 -185z m1129 -1750 c0 -5 11 -10 24 -10
39 0 56 -11 56 -35 0 -17 7 -24 30 -28 21 -5 30 -12 30 -25 0 -11 12 -32 26
-48 29 -31 29 -4 10 -301 -1 -24 1 -43 6 -43 4 0 8 -18 8 -40 0 -39 -1 -40
-34 -40 l-33 0 -6 58 c-3 37 -16 77 -36 114 -17 32 -30 60 -30 63 4 12 -36
115 -43 115 -4 0 -8 6 -8 14 0 8 -6 16 -14 19 -13 5 -19 28 -32 130 -4 30 -11
47 -20 47 -8 0 -14 5 -14 10 0 6 18 10 40 10 22 0 40 -4 40 -10z m800 -323 c0
-17 9 -26 33 -35 44 -16 47 -15 47 8 0 36 16 21 27 -26 9 -40 8 -47 -8 -57
-11 -7 -19 -22 -19 -34 0 -24 -10 -29 -26 -13 -6 6 -18 -7 -33 -35 -16 -31
-32 -47 -50 -52 -14 -3 -32 -10 -38 -16 -10 -7 -13 1 -13 36 0 25 -4 49 -10
52 -5 3 -10 24 -10 46 0 32 -3 39 -20 39 -17 0 -20 -7 -20 -40 l0 -40 -54 0
c-64 0 -73 13 -55 76 12 41 15 42 57 46 35 3 47 -1 58 -17 14 -19 14 -19 29 2
9 12 22 29 31 38 14 13 13 15 -12 15 -22 0 -25 2 -14 15 8 9 30 15 56 15 39 0
44 -3 44 -23z m-940 -128 c0 -5 18 -28 40 -51 22 -24 52 -56 67 -73 16 -16 27
-35 25 -42 -2 -7 6 -13 17 -13 11 0 23 -4 26 -10 3 -5 -1 -10 -11 -10 -13 0
-14 -3 -4 -15 27 -33 84 -12 103 38 8 21 37 22 37 2 0 -9 12 -27 27 -40 27
-22 27 -24 10 -42 -9 -11 -17 -25 -17 -31 0 -6 -12 -19 -26 -28 -24 -16 -27
-16 -54 -1 -15 9 -37 17 -48 17 -27 0 -38 17 -15 23 17 4 17 5 -1 12 -13 6
-23 3 -31 -8 -19 -27 -40 -20 -80 26 -20 23 -48 54 -61 68 -46 52 -65 168 -30
191 12 8 26 1 26 -13z"/>
<path d="M5262 2898 c5 -24 23 -77 41 -118 33 -78 77 -121 121 -119 14 0 16 3
7 6 -14 6 -32 20 -92 75 -30 28 -44 73 -14 48 12 -10 15 -10 15 0 0 8 4 9 13
3 6 -5 41 -18 77 -28 113 -32 219 -76 222 -94 3 -12 11 -9 35 17 17 19 37 46
44 60 7 15 21 39 31 54 10 14 18 30 18 35 0 4 -4 1 -9 -7 -7 -10 -36 -15 -105
-18 l-96 -4 -87 44 c-49 24 -115 50 -148 57 -33 7 -65 17 -72 23 -8 7 -9 -2
-1 -34z"/>
<path d="M6701 2935 c0 -5 6 -32 13 -60 37 -131 107 -368 129 -440 14 -44 46
-156 72 -250 26 -93 53 -188 60 -210 7 -22 46 -152 86 -288 64 -219 77 -251
101 -268 26 -19 31 -19 75 -5 58 18 316 109 358 126 59 24 70 29 91 35 15 4
20 12 17 23 -2 10 3 31 11 47 8 16 13 32 9 35 -3 3 -8 -1 -10 -7 -8 -21 -25
-15 -18 6 3 11 1 22 -5 26 -10 6 -14 -6 -11 -37 3 -22 -12 -23 -29 -3 -7 8
-18 15 -26 15 -7 0 -17 6 -21 13 -4 8 -16 17 -27 20 -14 6 -17 14 -12 38 4 24
0 35 -19 55 -14 14 -22 30 -19 36 4 6 2 13 -2 17 -34 23 -74 194 -83 351 l-6
105 -35 0 c-33 0 -35 -2 -38 -37 -2 -21 -8 -38 -14 -38 -8 0 -9 -38 -5 -127 5
-92 3 -136 -6 -157 l-12 -28 -13 36 c-7 20 -18 36 -23 36 -5 0 -9 18 -9 39 0
22 -5 41 -12 44 -10 4 -10 7 0 18 13 14 17 139 4 139 -13 0 -42 68 -36 85 4 9
-1 18 -12 22 -11 4 -27 16 -37 27 -17 19 -17 21 -3 24 20 4 21 18 1 26 -8 3
-20 17 -27 31 -6 14 -15 25 -19 25 -5 0 -19 11 -33 25 -19 18 -32 24 -49 20
-23 -6 -50 13 -45 31 5 20 -25 116 -38 121 -9 3 -14 21 -15 47 -1 59 -27 97
-78 114 -23 8 -45 20 -48 28 -3 8 -11 14 -18 14 -7 0 -15 3 -17 8 -1 4 -18 18
-37 31 -25 17 -35 20 -41 11 -6 -9 -9 -9 -13 1 -3 8 -6 10 -6 4z"/>
<path d="M5728 2532 c-27 -14 -48 -31 -48 -38 0 -8 -4 -14 -8 -14 -5 0 -22
-19 -39 -42 -23 -34 -31 -58 -36 -108 -3 -36 -9 -75 -13 -87 -6 -22 -4 -23 45
-23 l51 0 0 -109 0 -108 37 -6 c21 -4 41 -3 44 1 4 4 3 32 -3 62 -11 61 -5
169 12 200 6 12 9 74 8 158 l-3 138 -47 -24z"/>
<path d="M3780 1681 c0 -58 3 -67 48 -132 26 -38 50 -69 55 -69 13 0 7 154 -6
170 -7 8 -32 33 -55 55 l-42 39 0 -63z"/>
<path d="M4772 1673 c-18 -3 -35 -10 -37 -16 -6 -20 -13 -274 -8 -301 3 -13
14 -26 24 -29 25 -7 24 -28 -2 -56 -36 -39 -12 -36 33 4 66 59 74 80 37 93
l-20 8 20 26 c18 23 21 40 21 136 0 87 -3 114 -16 126 -8 9 -16 15 -17 14 -1
0 -17 -3 -35 -5z"/>
<path d="M4290 1523 c-14 -3 -28 -10 -32 -17 -10 -15 -10 -234 0 -240 4 -2 29
1 55 7 l47 10 0 124 c0 136 4 129 -70 116z"/>
<path d="M3780 1196 c0 -96 9 -114 72 -143 24 -11 27 -10 32 13 9 33 -3 90
-20 105 -8 6 -14 17 -14 23 0 6 -16 29 -35 51 l-35 40 0 -89z"/>
</g>
</svg>
